<svg width="497" height="77" viewBox="0 0 497 77" fill="none" xmlns="http://www.w3.org/2000/svg">
<path d="M21.0157 61.5064C17.3865 61.5064 14.116 60.7679 11.2042 59.2909C8.33454 57.7717 6.07683 55.6828 4.43102 53.0242C2.82741 50.3655 2.02561 47.3482 2.02561 43.9722C2.02561 40.5962 2.82741 37.5789 4.43102 34.9203C6.07683 32.2617 8.33454 30.1938 11.2042 28.7168C14.116 27.1976 17.3865 26.438 21.0157 26.438C24.6027 26.438 27.7255 27.1976 30.3842 28.7168C33.085 30.1938 35.0473 32.325 36.2711 35.1102L28.6117 39.2247C26.8393 36.1019 24.2862 34.5405 20.9524 34.5405C18.3782 34.5405 16.2471 35.3845 14.5591 37.0725C12.8711 38.7605 12.0271 41.0604 12.0271 43.9722C12.0271 46.884 12.8711 49.1839 14.5591 50.8719C16.2471 52.56 18.3782 53.404 20.9524 53.404C24.3284 53.404 26.8815 51.8426 28.6117 48.7197L36.2711 52.8976C35.0473 55.5984 33.085 57.7084 30.3842 59.2276C27.7255 60.7468 24.6027 61.5064 21.0157 61.5064ZM62.4087 26.438C66.6287 26.438 70.0258 27.704 72.6 30.236C75.2164 32.7681 76.5246 36.5239 76.5246 41.5035V61H66.6498V43.0227C66.6498 40.3219 66.059 38.3174 64.8774 37.0092C63.6958 35.6588 61.9867 34.9836 59.7501 34.9836C57.2602 34.9836 55.2768 35.7643 53.7998 37.3257C52.3228 38.8449 51.5843 41.1237 51.5843 44.1621V61H41.7095V14.0312H51.5843V30.4892C52.8925 29.181 54.475 28.1893 56.3318 27.5141C58.1886 26.7967 60.2143 26.438 62.4087 26.438ZM119.206 44.0988C119.206 44.2254 119.143 45.1116 119.016 46.7574H93.2527C93.7169 48.8674 94.8141 50.5343 96.5443 51.7582C98.2746 52.982 100.427 53.5939 103.001 53.5939C104.773 53.5939 106.335 53.3407 107.685 52.8343C109.078 52.2857 110.365 51.4417 111.547 50.3022L116.8 55.9993C113.593 59.6707 108.909 61.5064 102.748 61.5064C98.9076 61.5064 95.5104 60.7679 92.5564 59.2909C89.6024 57.7717 87.3236 55.6828 85.72 53.0242C84.1164 50.3655 83.3146 47.3482 83.3146 43.9722C83.3146 40.6384 84.0953 37.6422 85.6567 34.9836C87.2603 32.2828 89.4336 30.1938 92.1766 28.7168C94.9618 27.1976 98.0636 26.438 101.482 26.438C104.816 26.438 107.833 27.1554 110.534 28.5902C113.235 30.025 115.345 32.0929 116.864 34.7937C118.425 37.4523 119.206 40.554 119.206 44.0988ZM101.545 33.9075C99.3085 33.9075 97.4306 34.5405 95.9113 35.8065C94.3921 37.0725 93.4637 38.8027 93.1261 40.9971H109.901C109.563 38.8449 108.635 37.1358 107.115 35.8698C105.596 34.5616 103.739 33.9075 101.545 33.9075ZM147.745 59.3542C146.775 60.0716 145.572 60.6202 144.137 61C142.745 61.3376 141.268 61.5064 139.706 61.5064C135.655 61.5064 132.511 60.4725 130.275 58.4047C128.08 56.3369 126.983 53.2985 126.983 49.2894V35.3001H121.729V27.704H126.983V19.4117H136.858V27.704H145.34V35.3001H136.858V49.1628C136.858 50.5976 137.216 51.716 137.934 52.5178C138.693 53.2774 139.748 53.6572 141.099 53.6572C142.66 53.6572 143.99 53.2352 145.087 52.3912L147.745 59.3542ZM167.025 26.438C172.3 26.438 176.351 27.704 179.178 30.236C182.006 32.7259 183.42 36.5028 183.42 41.5668V61H174.178V56.7589C172.321 59.9239 168.861 61.5064 163.796 61.5064C161.18 61.5064 158.901 61.0633 156.96 60.1771C155.061 59.2909 153.605 58.0671 152.592 56.5057C151.58 54.9443 151.073 53.1719 151.073 51.1885C151.073 48.0234 152.255 45.5336 154.618 43.719C157.023 41.9044 160.716 40.9971 165.695 40.9971H173.545C173.545 38.8449 172.891 37.1991 171.582 36.0597C170.274 34.8781 168.312 34.2873 165.695 34.2873C163.881 34.2873 162.087 34.5827 160.315 35.1735C158.585 35.7221 157.108 36.4817 155.884 37.4523L152.339 30.5525C154.196 29.2443 156.411 28.2315 158.986 27.5141C161.602 26.7967 164.282 26.438 167.025 26.438ZM166.265 54.8599C167.953 54.8599 169.451 54.4801 170.76 53.7205C172.068 52.9187 172.996 51.7582 173.545 50.2389V46.7574H166.772C162.72 46.7574 160.695 48.0867 160.695 50.7453C160.695 52.0114 161.18 53.0242 162.151 53.7838C163.163 54.5012 164.535 54.8599 166.265 54.8599ZM213.056 26.438C217.276 26.438 220.673 27.704 223.247 30.236C225.864 32.7681 227.172 36.5239 227.172 41.5035V61H217.297V43.0227C217.297 40.3219 216.706 38.3174 215.525 37.0092C214.343 35.6588 212.634 34.9836 210.397 34.9836C207.908 34.9836 205.924 35.7643 204.447 37.3257C202.97 38.8449 202.232 41.1237 202.232 44.1621V61H192.357V26.9444H201.789V30.9324C203.097 29.4975 204.721 28.4003 206.663 27.6407C208.604 26.8389 210.735 26.438 213.056 26.438ZM268.672 47.6436L263.925 52.3279V61H254.05V14.0312H263.925V40.6173L278.357 26.9444H290.131L275.952 41.3769L291.397 61H279.433L268.672 47.6436ZM327.714 44.0988C327.714 44.2254 327.65 45.1116 327.524 46.7574H301.761C302.225 48.8674 303.322 50.5343 305.052 51.7582C306.782 52.982 308.935 53.5939 311.509 53.5939C313.281 53.5939 314.843 53.3407 316.193 52.8343C317.586 52.2857 318.873 51.4417 320.054 50.3022L325.308 55.9993C322.101 59.6707 317.417 61.5064 311.256 61.5064C307.415 61.5064 304.018 60.7679 301.064 59.2909C298.11 57.7717 295.831 55.6828 294.228 53.0242C292.624 50.3655 291.822 47.3482 291.822 43.9722C291.822 40.6384 292.603 37.6422 294.164 34.9836C295.768 32.2828 297.941 30.1938 300.684 28.7168C303.47 27.1976 306.571 26.438 309.99 26.438C313.323 26.438 316.341 27.1554 319.041 28.5902C321.742 30.025 323.852 32.0929 325.372 34.7937C326.933 37.4523 327.714 40.554 327.714 44.0988ZM310.053 33.9075C307.816 33.9075 305.938 34.5405 304.419 35.8065C302.9 37.0725 301.972 38.8027 301.634 40.9971H318.408C318.071 38.8449 317.142 37.1358 315.623 35.8698C314.104 34.5616 312.247 33.9075 310.053 33.9075ZM345.745 61.5064C342.918 61.5064 340.154 61.1688 337.453 60.4936C334.752 59.7762 332.6 58.89 330.996 57.835L334.288 50.7453C335.807 51.716 337.643 52.5178 339.795 53.1508C341.947 53.7416 344.057 54.037 346.125 54.037C350.303 54.037 352.392 53.0031 352.392 50.9352C352.392 49.9646 351.822 49.2683 350.683 48.8463C349.543 48.4243 347.792 48.0656 345.429 47.7702C342.644 47.3482 340.344 46.8629 338.529 46.3143C336.714 45.7657 335.132 44.7951 333.782 43.4025C332.473 42.0099 331.819 40.0265 331.819 37.4523C331.819 35.3001 332.431 33.4011 333.655 31.7553C334.921 30.0672 336.736 28.759 339.099 27.8306C341.504 26.9022 344.332 26.438 347.581 26.438C349.986 26.438 352.371 26.7123 354.734 27.2609C357.139 27.7673 359.123 28.4847 360.684 29.4131L357.393 36.4395C354.396 34.7515 351.126 33.9075 347.581 33.9075C345.471 33.9075 343.889 34.2029 342.834 34.7937C341.779 35.3845 341.251 36.1441 341.251 37.0725C341.251 38.1275 341.821 38.866 342.96 39.288C344.1 39.71 345.914 40.1109 348.404 40.4907C351.189 40.9549 353.468 41.4613 355.24 42.0099C357.013 42.5163 358.553 43.4658 359.861 44.8584C361.17 46.251 361.824 48.1922 361.824 50.682C361.824 52.7921 361.191 54.67 359.925 56.3158C358.659 57.9616 356.802 59.2487 354.354 60.1771C351.949 61.0633 349.079 61.5064 345.745 61.5064ZM388.615 26.438C392.835 26.438 396.233 27.704 398.807 30.236C401.423 32.7681 402.731 36.5239 402.731 41.5035V61H392.857V43.0227C392.857 40.3219 392.266 38.3174 391.084 37.0092C389.903 35.6588 388.193 34.9836 385.957 34.9836C383.467 34.9836 381.484 35.7643 380.007 37.3257C378.53 38.8449 377.791 41.1237 377.791 44.1621V61H367.916V14.0312H377.791V30.4892C379.099 29.181 380.682 28.1893 382.539 27.5141C384.395 26.7967 386.421 26.438 388.615 26.438ZM425.419 26.438C430.694 26.438 434.745 27.704 437.572 30.236C440.4 32.7259 441.813 36.5028 441.813 41.5668V61H432.572V56.7589C430.715 59.9239 427.254 61.5064 422.19 61.5064C419.574 61.5064 417.295 61.0633 415.354 60.1771C413.455 59.2909 411.999 58.0671 410.986 56.5057C409.973 54.9443 409.467 53.1719 409.467 51.1885C409.467 48.0234 410.649 45.5336 413.012 43.719C415.417 41.9044 419.11 40.9971 424.089 40.9971H431.939C431.939 38.8449 431.284 37.1991 429.976 36.0597C428.668 34.8781 426.706 34.2873 424.089 34.2873C422.275 34.2873 420.481 34.5827 418.709 35.1735C416.979 35.7221 415.502 36.4817 414.278 37.4523L410.733 30.5525C412.59 29.2443 414.805 28.2315 417.379 27.5141C419.996 26.7967 422.676 26.438 425.419 26.438ZM424.659 54.8599C426.347 54.8599 427.845 54.4801 429.153 53.7205C430.462 52.9187 431.39 51.7582 431.939 50.2389V46.7574H425.165C421.114 46.7574 419.089 48.0867 419.089 50.7453C419.089 52.0114 419.574 53.0242 420.545 53.7838C421.557 54.5012 422.929 54.8599 424.659 54.8599ZM483.935 26.9444L469.566 61H459.374L445.068 26.9444H455.26L464.692 50.1123L474.44 26.9444H483.935Z" fill="#20203D"/>
<circle cx="490.233" cy="55.1833" r="6.41667" fill="#41BEAA"/>
</svg>
